<svg preserveAspectRatio="none" width="100%" height="100%" overflow="visible" style="display: block;" viewBox="0 0 119 57" fill="none" xmlns="http://www.w3.org/2000/svg">
<g id="Layer_1" clip-path="url(#clip0_0_6)">
<path id="Vector" d="M50.0491 21.3072H50.0259C50.0259 21.3072 50.0181 21.3047 50.0181 21.2995C50.0181 21.2943 50.0233 21.2917 50.0259 21.2917C50.0285 21.2917 50.031 21.2917 50.0336 21.2943C50.0362 21.2943 50.0362 21.2969 50.0362 21.2995L50.0465 21.3072H50.0491Z" fill="var(--fill-0, #E39B4D)"/>
<path id="Vector_2" d="M50.0362 21.2968C50.0362 21.2968 50.031 21.3046 50.0259 21.3046C50.0233 21.3046 50.0181 21.302 50.0181 21.2968C50.0181 21.2917 50.0233 21.2891 50.0259 21.2891C50.0285 21.2891 50.031 21.2891 50.0336 21.2917C50.0362 21.2917 50.0362 21.2942 50.0362 21.2968Z" fill="var(--fill-0, #E39B4D)"/>
<path id="Vector_3" d="M50.0491 21.3072H50.0259C50.0259 21.3072 50.0181 21.3047 50.0181 21.2995C50.0181 21.2943 50.0233 21.2917 50.0259 21.2917C50.0285 21.2917 50.031 21.2917 50.0336 21.2943C50.0362 21.2943 50.0362 21.2969 50.0362 21.2995L50.0465 21.3072H50.0491Z" fill="var(--fill-0, #E39B4D)"/>
<g id="Group">
<path id="Vector_4" d="M8.58412 22.8248H0V18.1123H22.3462V22.8248H13.7198V46.798H8.58412V22.8248Z" fill="var(--fill-0, white)"/>
<path id="Vector_5" d="M24.5245 26.3071H29.4543V46.798H24.5245V26.3071Z" fill="var(--fill-0, white)"/>
<path id="Vector_6" d="M34.957 26.3071H39.8867V48.8052C39.8867 49.9247 39.7705 50.9784 39.5382 51.9609C39.3058 52.9434 38.9018 53.8101 38.3262 54.5634C37.7506 55.3142 36.9848 55.9095 36.0264 56.3467C35.0679 56.784 33.8638 57.0026 32.4116 57.0026H32.0208C31.8967 57.0026 31.7673 56.9895 31.63 56.9605V52.4535C32.6703 52.4535 33.4862 52.1532 34.0751 51.5526C34.6639 50.952 34.957 49.9537 34.957 48.5602V26.3097V26.3071Z" fill="var(--fill-0, white)"/>
<path id="Vector_7" d="M52.6612 26.02C54.2481 26.02 55.7004 26.2728 57.0153 26.7786C58.3303 27.2843 59.4525 28.0008 60.3846 28.9307C61.314 29.8605 62.0348 30.98 62.5418 32.2918C63.0488 33.6036 63.3023 35.0524 63.3023 36.6355V46.798H58.3725V44.8303C57.8788 45.4599 57.1183 46.0051 56.0912 46.4687C55.064 46.9323 53.7966 47.1641 52.2916 47.1641C50.7865 47.1641 49.4425 46.9113 48.183 46.4055C46.9235 45.8998 45.8409 45.1833 44.9379 44.2534C44.0349 43.3262 43.3272 42.2041 42.8229 40.8923C42.3159 39.5805 42.0624 38.1343 42.0624 36.5486C42.0624 34.9628 42.3159 33.522 42.8229 32.226C43.3272 30.93 44.0481 29.821 44.9775 28.907C45.9096 27.9903 47.0239 27.2817 48.3256 26.776C49.6273 26.2702 51.0717 26.0173 52.6612 26.0173V26.02ZM58.3699 36.5934C58.3699 34.681 57.8576 33.1927 56.8305 32.1259C55.8034 31.0617 54.4277 30.527 52.7008 30.527C50.974 30.527 49.593 31.0591 48.5527 32.1259C47.5123 33.1927 46.9922 34.681 46.9922 36.5934C46.9922 38.5058 47.5123 39.994 48.5527 41.0609C49.593 42.1251 50.9766 42.6598 52.7008 42.6598C54.425 42.6598 55.8034 42.1277 56.8305 41.0609C57.8576 39.994 58.3699 38.5058 58.3699 36.5934Z" fill="var(--fill-0, white)"/>
<path id="Vector_8" d="M65.4753 35.3237C65.4753 32.2102 66.3942 29.8684 68.2267 28.2959C70.0618 26.7259 72.5412 25.9409 75.6622 25.9409V30.4479C74.0199 30.4479 72.7313 30.851 71.7992 31.657C70.8698 32.4631 70.4024 33.6853 70.4024 35.3237V46.798H65.4727V35.3237H65.4753Z" fill="var(--fill-0, white)"/>
<path id="Vector_9" d="M87.2881 47.1668C85.5903 47.1668 84.146 46.8876 82.9552 46.3265C81.7643 45.7654 80.7847 45.0568 80.019 44.1955C79.2506 43.3341 78.6961 42.399 78.3555 41.3875C78.0122 40.376 77.8432 39.4198 77.8432 38.5189V26.3071H82.773V38.3951C82.773 39.1327 82.8971 39.7622 83.1426 40.2812C83.3882 40.8001 83.7182 41.2373 84.1302 41.593C84.5421 41.9486 85.02 42.2067 85.5692 42.37C86.1158 42.5333 86.6914 42.615 87.2934 42.615C87.8954 42.615 88.4711 42.5333 89.0176 42.37C89.5669 42.2067 90.0448 41.9459 90.4567 41.593C90.8686 41.2373 91.196 40.8001 91.4442 40.2812C91.6898 39.7622 91.8139 39.1327 91.8139 38.3951V26.3071H96.7436V38.5189C96.7436 39.4198 96.572 40.376 96.2314 41.3875C95.8881 42.399 95.3336 43.3341 94.5679 44.1955C93.8021 45.0568 92.8225 45.7654 91.6317 46.3265C90.4408 46.8849 88.9965 47.1668 87.2987 47.1668H87.2881Z" fill="var(--fill-0, white)"/>
<path id="Vector_10" d="M98.9114 18.1123H103.841V38.8903L113.125 26.3097H119L111.401 36.5539L118.836 46.798H113.004L108.486 40.5288L103.844 46.798H98.9141V18.1123H98.9114Z" fill="var(--fill-0, white)"/>
</g>
<path id="Vector_11" d="M28.8267 17.3302L25.4436 20.7053L28.8267 24.0803L32.2099 20.7053L28.8267 17.3302Z" fill="var(--fill-0, #E39B4D)"/>
<path id="Vector_12" d="M35.5658 17.3269L32.1827 20.702L35.5658 24.077L38.949 20.702L35.5658 17.3269Z" fill="var(--fill-0, white)"/>
<path id="Vector_13" d="M71.3715 2.06253V15.2648L69.8057 16.8268V0L70.9649 1.10634C71.2236 1.35394 71.3715 1.70165 71.3715 2.06253Z" fill="var(--fill-0, #E39B4D)"/>
<path id="Vector_14" d="M67.8491 0.0105365V16.7742C67.8491 16.8479 67.7884 16.9085 67.7145 16.9085H49.2999C49.226 16.9085 49.197 16.8532 49.1943 16.8374C49.1864 16.8189 49.1679 16.761 49.2207 16.7109L49.395 16.5213H49.3897L53.9973 12.1196H53.9656L56.9625 9.25634C57.1236 9.10356 57.3348 9.01664 57.5566 9.01664H62.6527C62.8692 9.01664 63.0488 9.19312 63.0488 9.41176V11.7245C63.0488 11.9405 62.8719 12.1196 62.6527 12.1196H55.233C55.0165 12.1196 54.8053 12.2039 54.6495 12.3541L53.5827 13.3735C53.5062 13.4472 53.4824 13.5526 53.5247 13.6501C53.5616 13.7449 53.654 13.8055 53.757 13.8055H66.2807V2.15999C66.2807 1.81492 66.4154 1.48302 66.6556 1.23804L67.8491 0.0105365Z" fill="var(--fill-0, #E39B4D)"/>
<path id="Vector_15" d="M78.9556 6.40196L78.0733 7.29861L78.9721 8.17882L79.8544 7.28217L78.9556 6.40196Z" fill="var(--fill-0, #E39B4D)"/>
<path id="Vector_16" d="M76.8342 6.39577L75.9507 7.29134L76.8485 8.17265L77.7319 7.27708L76.8342 6.39577Z" fill="var(--fill-0, #E39B4D)"/>
<g id="Group_2">
<path id="Vector_17" d="M61.7655 7.27021V8.2264C61.7655 8.24484 61.7497 8.26064 61.7312 8.26064H57.8312L57.8207 8.26854H57.5777L57.5883 8.26064H57.5619L58.2379 7.60474C58.2379 7.60474 58.2537 7.5942 58.2616 7.5942H61.5305V7.27811H58.8478H58.5732L58.9825 6.87245L58.9745 6.86455L60.3001 5.57119C60.3001 5.57119 60.3159 5.56065 60.3238 5.56065H61.7259C61.7444 5.56065 61.7602 5.57646 61.7602 5.5949V6.22446H61.5754H59.8327C59.8221 6.22446 59.8142 6.22709 59.8089 6.23499L59.434 6.60904H61.5912H61.7629V7.27021H61.7655Z" fill="var(--fill-0, #E39B4D)"/>
<path id="Vector_18" d="M61.7629 7.27021V6.60904H61.5912H59.434L59.8089 6.23499C59.8089 6.23499 59.8248 6.22446 59.8327 6.22446H61.5754H61.7602V5.5949C61.7602 5.57646 61.7444 5.56065 61.7259 5.56065H60.3238C60.3238 5.56065 60.3053 5.56329 60.3001 5.57119L58.9745 6.86455L58.9825 6.87245L58.5732 7.27811H58.8478H61.5305V7.5942H58.2616C58.2616 7.5942 58.2431 7.59684 58.2379 7.60474L57.5619 8.26064H57.5883L57.5777 8.26854H57.8207L57.8312 8.26064H61.7312C61.7497 8.26064 61.7655 8.24484 61.7655 8.2264V7.27021H61.7629ZM60.3766 5.67656H61.6124C61.6308 5.67656 61.6467 5.69236 61.6467 5.7108V6.06904C61.6467 6.08748 61.6308 6.10329 61.6124 6.10329H59.9225L60.3529 5.68446C60.3581 5.67919 60.3687 5.67392 60.3766 5.67392V5.67656ZM61.6467 8.10786C61.6467 8.1263 61.6308 8.1421 61.6124 8.1421H57.8524L58.2854 7.72064C58.2854 7.72064 58.3012 7.71011 58.3092 7.71011H61.6097C61.6282 7.71011 61.644 7.72591 61.644 7.74435V8.10523L61.6467 8.10786ZM61.6467 7.12269C61.6467 7.14113 61.6308 7.15694 61.6124 7.15694H58.861L59.2756 6.73811C59.2808 6.73021 59.2914 6.72758 59.2993 6.72758H61.6124C61.6308 6.72758 61.6467 6.74338 61.6467 6.76182V7.12269Z" fill="var(--fill-0, #E39B4D)"/>
</g>
<path id="Vector_19" d="M73.2436 14.2059V14.5141L66.212 21.5288C66.0668 21.6736 65.8661 21.7553 65.6628 21.7553H43.9741C43.9583 21.7553 43.9451 21.7474 43.9398 21.7369C43.9398 21.7316 43.9319 21.7211 43.9345 21.7053L47.111 18.6707C47.1374 18.6602 47.1585 18.6418 47.1823 18.626C47.1981 18.6154 47.2298 18.5917 47.2404 18.5917H68.8525L73.2462 14.2085L73.2436 14.2059Z" fill="var(--fill-0, #E39B4D)"/>
<path id="Vector_20" d="M94.758 21.8317H84.1275L82.8311 20.5647L81.5848 21.8317H73.8694C73.6713 21.8317 73.4786 21.7553 73.336 21.6183L70.8355 19.2476L70.0777 18.5259L71.3715 17.2404V18.1097C71.3715 18.4495 71.6514 18.7287 71.992 18.7287H91.3544L89.5325 16.9111H75.4325C75.0972 16.9111 74.8226 16.6372 74.8226 16.3026V9.62512C74.8226 9.29059 75.0972 9.014 75.4351 9.014H81.1702C81.4052 9.014 81.6349 9.07459 81.833 9.18786L84.7559 11.9827C84.7612 12.0143 84.756 12.0406 84.7375 12.067C84.7269 12.0854 84.6979 12.1144 84.6424 12.1144H75.8074C75.6068 12.1144 75.4457 12.2751 75.4457 12.4753V13.4446C75.4457 13.6422 75.6068 13.8055 75.8074 13.8055H86.665L94.8398 21.6183C94.9191 21.6947 94.8662 21.8291 94.7553 21.8291L94.758 21.8317Z" fill="var(--fill-0, #E39B4D)"/>
<path id="Vector_21" d="M83.7209 21.9581L83.6126 22.0688L82.8522 22.8406L82.0627 22.0688L81.965 21.9739L81.9861 21.9502L82.8363 21.0862L83.7156 21.9502L83.7209 21.9581Z" fill="var(--fill-0, #E39B4D)"/>
</g>
<defs>
<clipPath id="clip0_0_6">
<rect width="119" height="57" fill="white"/>
</clipPath>
</defs>
</svg>
